<svg width="24" height="24" viewBox="0 0 24 24" fill="none" xmlns="http://www.w3.org/2000/svg">
<path d="M21.0006 3.9997V16.9997C21.0007 17.1976 20.9421 17.3911 20.8323 17.5557C20.7224 17.7203 20.5662 17.8486 20.3833 17.9243C20.2005 18.0001 19.9993 18.0199 19.8052 17.9812C19.6112 17.9426 19.4329 17.8472 19.2931 17.7072L13.5006 11.9134L4.70806 20.7072C4.52042 20.8948 4.26592 21.0003 4.00056 21.0003C3.73519 21.0003 3.4807 20.8948 3.29306 20.7072C3.10542 20.5196 3 20.2651 3 19.9997C3 19.7343 3.10542 19.4798 3.29306 19.2922L12.0868 10.4997L6.29306 4.7072C6.15304 4.56734 6.05768 4.38909 6.01903 4.195C5.98038 4.00092 6.00018 3.79973 6.07593 3.61691C6.15169 3.43408 6.27998 3.27785 6.44457 3.16797C6.60917 3.0581 6.80266 2.99954 7.00056 2.9997H20.0006C20.2658 2.9997 20.5201 3.10505 20.7077 3.29259C20.8952 3.48012 21.0006 3.73448 21.0006 3.9997Z" fill="#414050"/>
</svg>
