<svg width="24" height="24" viewBox="0 0 24 24" fill="none" xmlns="http://www.w3.org/2000/svg">
<path d="M20.5772 7.44381L16.5562 3.42187C16.4225 3.28812 16.2637 3.18203 16.089 3.10964C15.9143 3.03726 15.727 3 15.5379 3C15.3488 3 15.1615 3.03726 14.9868 3.10964C14.812 3.18203 14.6533 3.28812 14.5196 3.42187L3.42209 14.5202C3.2878 14.6535 3.18133 14.8121 3.10887 14.9868C3.03641 15.1615 2.9994 15.3489 3.00001 15.5381V19.56C3.00001 19.9419 3.15172 20.3082 3.42176 20.5782C3.6918 20.8483 4.05805 21 4.43995 21H8.4619C8.65106 21.0006 8.83846 20.9636 9.0132 20.8911C9.18794 20.8187 9.34653 20.7122 9.47976 20.5779L20.5772 9.48043C20.711 9.34672 20.8171 9.18797 20.8895 9.01324C20.9618 8.83852 20.9991 8.65125 20.9991 8.46212C20.9991 8.273 20.9618 8.08573 20.8895 7.911C20.8171 7.73628 20.711 7.57753 20.5772 7.44381ZM4.73784 15.2402L12.869 7.10903L14.3702 8.61107L6.23988 16.7414L4.73784 15.2402ZM4.43995 16.978L7.02195 19.56H4.43995V16.978ZM8.75979 19.2622L7.25774 17.7601L15.3889 9.62893L16.8901 11.131L8.75979 19.2622Z" fill="#414050"/>
</svg>
