<svg width="24" height="24" viewBox="0 0 24 24" fill="none" xmlns="http://www.w3.org/2000/svg">
<path d="M22.1648 10.1664L17.365 14.9662C17.2531 15.0782 17.1105 15.1545 16.9553 15.1854C16.8 15.2163 16.639 15.2005 16.4928 15.1399C16.3465 15.0793 16.2216 14.9767 16.1337 14.845C16.0458 14.7133 15.9989 14.5585 15.999 14.4002V10.4004H11.9992C9.6662 10.403 7.42951 11.331 5.77983 12.9807C4.13015 14.6303 3.20219 16.867 3.19955 19.2C3.19955 19.4122 3.11526 19.6157 2.96524 19.7657C2.81522 19.9157 2.61174 20 2.39958 20C2.18741 20 1.98394 19.9157 1.83391 19.7657C1.68389 19.6157 1.59961 19.4122 1.59961 19.2C1.60252 16.4428 2.69912 13.7993 4.64879 11.8496C6.59847 9.89996 9.24195 8.80335 11.9992 8.80044H15.999V4.8006C15.9989 4.64229 16.0458 4.4875 16.1337 4.35583C16.2216 4.22416 16.3465 4.12153 16.4928 4.06093C16.639 4.00033 16.8 3.98449 16.9553 4.01541C17.1105 4.04633 17.2531 4.12262 17.365 4.23462L22.1648 9.03443C22.2392 9.10873 22.2982 9.19695 22.3384 9.29407C22.3787 9.39118 22.3994 9.49528 22.3994 9.60041C22.3994 9.70554 22.3787 9.80964 22.3384 9.90675C22.2982 10.0039 22.2392 10.0921 22.1648 10.1664Z" fill="#414050"/>
</svg>
