<svg width="32" height="32" viewBox="0 0 32 32" fill="none" xmlns="http://www.w3.org/2000/svg">
<path d="M19.7582 15.1869C20.239 14.5881 20.5437 13.8618 20.6367 13.0928C20.7296 12.3237 20.6071 11.5435 20.2833 10.8429C19.9595 10.1423 19.4478 9.55019 18.8077 9.13541C18.1676 8.72063 17.4255 8.50027 16.6677 8.5H11.0002C10.7349 8.5 10.4805 8.60775 10.2929 8.79955C10.1054 8.99135 10 9.25148 10 9.52273V22.4773C10 22.7485 10.1054 23.0087 10.2929 23.2004C10.4805 23.3922 10.7349 23.5 11.0002 23.5H17.6678C18.6291 23.4996 19.5629 23.1724 20.3225 22.5699C21.082 21.9674 21.6241 21.1238 21.8635 20.1718C22.1028 19.2198 22.0259 18.2135 21.6448 17.3111C21.2637 16.4087 20.6 15.6614 19.7582 15.1869ZM12.0003 10.5455H16.6677C17.1982 10.5455 17.707 10.761 18.0821 11.1446C18.4572 11.5282 18.668 12.0484 18.668 12.5909C18.668 13.1334 18.4572 13.6537 18.0821 14.0373C17.707 14.4209 17.1982 14.6364 16.6677 14.6364H12.0003V10.5455ZM17.6678 21.4545H12.0003V16.6818H17.6678C18.2868 16.6818 18.8804 16.9332 19.318 17.3808C19.7557 17.8283 20.0015 18.4353 20.0015 19.0682C20.0015 19.7011 19.7557 20.3081 19.318 20.7556C18.8804 21.2031 18.2868 21.4545 17.6678 21.4545Z" fill="#414050"/>
</svg>
