<svg width="32" height="32" viewBox="0 0 32 32" fill="none" xmlns="http://www.w3.org/2000/svg">
<path d="M10.1256 20.7476C10.247 20.8061 10.3785 20.8396 10.5126 20.8463C10.6467 20.8529 10.7808 20.8325 10.9071 20.7863C11.0335 20.7401 11.1496 20.6689 11.2489 20.5769C11.3482 20.4849 11.4286 20.3738 11.4857 20.25L12.8074 17.3848H19.1926L20.5169 20.25C20.6321 20.4993 20.8398 20.6917 21.0944 20.785C21.349 20.8783 21.6295 20.8649 21.8744 20.7476C22.1192 20.6303 22.3082 20.4188 22.3999 20.1597C22.4915 19.9005 22.4783 19.6149 22.3631 19.3656L16.9231 7.59667C16.8407 7.41827 16.7102 7.26743 16.5467 7.16177C16.3833 7.05611 16.1936 7 16 7C15.8064 7 15.6167 7.05611 15.4533 7.16177C15.2898 7.26743 15.1593 7.41827 15.0769 7.59667L9.6369 19.3656C9.57984 19.489 9.54721 19.6227 9.54089 19.7589C9.53457 19.8952 9.55468 20.0314 9.60007 20.1597C9.64545 20.288 9.71523 20.406 9.80541 20.5069C9.89559 20.6078 10.0044 20.6896 10.1256 20.7476ZM16 10.4775L18.233 15.3079H13.7671L16 10.4775ZM24.5 23.9616C24.5 24.237 24.3925 24.5011 24.2012 24.6958C24.01 24.8906 23.7505 25 23.48 25H8.52C8.24948 25 7.99004 24.8906 7.79875 24.6958C7.60746 24.5011 7.5 24.237 7.5 23.9616C7.5 23.6862 7.60746 23.422 7.79875 23.2273C7.99004 23.0325 8.24948 22.9231 8.52 22.9231H23.48C23.7505 22.9231 24.01 23.0325 24.2012 23.2273C24.3925 23.422 24.5 23.6862 24.5 23.9616Z" fill="#414050"/>
</svg>
