<svg width="32" height="32" viewBox="0 0 32 32" fill="none" xmlns="http://www.w3.org/2000/svg">
<path d="M22.5 10C22.5 10.2652 22.3919 10.5196 22.1994 10.7071C22.0069 10.8946 21.7459 11 21.4737 11H18.7924L15.3714 21H17.3684C17.6406 21 17.9017 21.1054 18.0941 21.2929C18.2866 21.4804 18.3947 21.7348 18.3947 22C18.3947 22.2652 18.2866 22.5196 18.0941 22.7071C17.9017 22.8946 17.6406 23 17.3684 23H10.5263C10.2541 23 9.99307 22.8946 9.8006 22.7071C9.60813 22.5196 9.5 22.2652 9.5 22C9.5 21.7348 9.60813 21.4804 9.8006 21.2929C9.99307 21.1054 10.2541 21 10.5263 21H13.2076L16.6286 11H14.6316C14.3594 11 14.0983 10.8946 13.9059 10.7071C13.7134 10.5196 13.6053 10.2652 13.6053 10C13.6053 9.73478 13.7134 9.48043 13.9059 9.29289C14.0983 9.10536 14.3594 9 14.6316 9H21.4737C21.7459 9 22.0069 9.10536 22.1994 9.29289C22.3919 9.48043 22.5 9.73478 22.5 10Z" fill="#414050"/>
</svg>
