<svg width="24" height="24" viewBox="0 0 24 24" fill="none" xmlns="http://www.w3.org/2000/svg">
<path d="M22.3994 19.2C22.3994 19.4122 22.3151 19.6157 22.1651 19.7657C22.0151 19.9157 21.8116 20 21.5995 20C21.3873 20 21.1838 19.9157 21.0338 19.7657C20.8838 19.6157 20.7995 19.4122 20.7995 19.2C20.7968 16.867 19.8689 14.6303 18.2192 12.9807C16.5695 11.331 14.3328 10.403 11.9998 10.4004H7.99999V14.4002C8.00011 14.5585 7.95326 14.7133 7.86537 14.845C7.77748 14.9767 7.65249 15.0793 7.50624 15.1399C7.35999 15.2005 7.19904 15.2163 7.04378 15.1854C6.88852 15.1545 6.74592 15.0782 6.63404 14.9662L1.83423 10.1664C1.75985 10.0921 1.70085 10.0039 1.66059 9.90675C1.62033 9.80964 1.59961 9.70554 1.59961 9.60041C1.59961 9.49528 1.62033 9.39118 1.66059 9.29407C1.70085 9.19695 1.75985 9.10873 1.83423 9.03443L6.63404 4.23462C6.74592 4.12262 6.88852 4.04633 7.04378 4.01541C7.19904 3.98449 7.35999 4.00033 7.50624 4.06093C7.65249 4.12153 7.77748 4.22416 7.86537 4.35583C7.95326 4.4875 8.00011 4.64229 7.99999 4.8006V8.80044H11.9998C14.7571 8.80335 17.4006 9.89996 19.3502 11.8496C21.2999 13.7993 22.3965 16.4428 22.3994 19.2Z" fill="#414050"/>
</svg>
