<svg width="401" height="161" viewBox="0 0 401 161" fill="none" xmlns="http://www.w3.org/2000/svg">
<rect width="80" height="80" transform="translate(240.5 80.5)" fill="#FAF4D3"/>
<rect width="80" height="80" transform="translate(320.5 80.5)" fill="#E7F4FB"/>
<rect width="80" height="80" transform="translate(160.5 0.5)" fill="#FAF4D3"/>
<rect width="80" height="80" transform="translate(80.5 0.5)" fill="#F0E6FE"/>
<rect width="80" height="80" transform="translate(0.5 80.5)" fill="#DEF5F0"/>
<rect width="80" height="80" transform="translate(240.5 0.5)" fill="#FFE4F4"/>
<path d="M248.655 142.347L225.185 118.881C231.988 110.714 235.38 100.239 234.656 89.6345C233.932 79.0302 229.147 69.1132 221.298 61.9466C213.448 54.7799 203.138 50.9154 192.512 51.1569C181.885 51.3984 171.761 55.7274 164.245 63.2432C156.73 70.759 152.401 80.8831 152.159 91.5094C151.918 102.136 155.782 112.446 162.949 120.296C170.115 128.145 180.032 132.929 190.637 133.653C201.241 134.377 211.716 130.985 219.883 124.183L243.349 147.653C243.697 148.001 244.111 148.278 244.566 148.466C245.021 148.655 245.509 148.752 246.002 148.752C246.495 148.752 246.983 148.655 247.438 148.466C247.893 148.278 248.307 148.001 248.655 147.653C249.004 147.305 249.28 146.891 249.469 146.436C249.657 145.98 249.754 145.493 249.754 145C249.754 144.507 249.657 144.019 249.469 143.564C249.28 143.109 249.004 142.695 248.655 142.347ZM159.752 92.4998C159.752 85.8247 161.731 79.2995 165.44 73.7494C169.148 68.1992 174.419 63.8734 180.586 61.3189C186.753 58.7645 193.539 58.0961 200.086 59.3983C206.633 60.7006 212.647 63.915 217.367 68.635C222.087 73.355 225.301 79.3687 226.604 85.9156C227.906 92.4624 227.237 99.2484 224.683 105.415C222.129 111.582 217.803 116.853 212.253 120.562C206.702 124.27 200.177 126.25 193.502 126.25C184.554 126.24 175.975 122.681 169.648 116.354C163.321 110.027 159.762 101.448 159.752 92.4998Z" fill="#8460B3"/>
<path d="M171 85V86C171 89.866 174.134 93 178 93V93C181.866 93 185 89.866 185 86V85" stroke="#8460B3" stroke-width="5" stroke-linecap="round"/>
<path d="M202 85V86C202 89.866 205.134 93 209 93V93C212.866 93 216 89.866 216 86V85" stroke="#8460B3" stroke-width="5" stroke-linecap="round"/>
<path d="M182 109L182.425 108.823C189.82 105.741 198.152 105.805 205.5 109V109" stroke="#8460B3" stroke-width="5" stroke-linecap="round"/>
</svg>
