<svg
                          width="20"
                          height="20"
                          viewBox="0 0 20 20"
                          fill="none"
                          xmlns="http://www.w3.org/2000/svg"
                        >
                          <path
                            d="M16.6925 12.0578L10.4425 5.80783C10.3845 5.74972 10.3156 5.70362 10.2397 5.67217C10.1638 5.64072 10.0825 5.62453 10.0003 5.62453C9.91821 5.62453 9.83688 5.64072 9.76101 5.67217C9.68514 5.70362 9.61621 5.74972 9.55816 5.80783L3.30816 12.0578C3.19088 12.1751 3.125 12.3342 3.125 12.5C3.125 12.6659 3.19088 12.8249 3.30816 12.9422C3.42544 13.0595 3.5845 13.1254 3.75035 13.1254C3.9162 13.1254 4.07526 13.0595 4.19253 12.9422L10.0003 7.13361L15.8082 12.9422C15.8662 13.0003 15.9352 13.0463 16.011 13.0778C16.0869 13.1092 16.1682 13.1254 16.2503 13.1254C16.3325 13.1254 16.4138 13.1092 16.4897 13.0778C16.5655 13.0463 16.6345 13.0003 16.6925 12.9422C16.7506 12.8841 16.7967 12.8152 16.8281 12.7393C16.8595 12.6635 16.8757 12.5821 16.8757 12.5C16.8757 12.4179 16.8595 12.3366 16.8281 12.2607C16.7967 12.1848 16.7506 12.1159 16.6925 12.0578Z"
                            fill="#A09FA7"
                          />
                        </svg>