<svg width="24" height="24" viewBox="0 0 24 24" fill="none" xmlns="http://www.w3.org/2000/svg">
<path d="M21.9425 11.3967C21.9133 11.3308 21.2075 9.765 19.6383 8.19584C17.5475 6.105 14.9067 5 12 5C9.09333 5 6.4525 6.105 4.36166 8.19584C2.79249 9.765 2.08333 11.3333 2.05749 11.3967C2.01959 11.4819 2 11.5742 2 11.6675C2 11.7608 2.01959 11.8531 2.05749 11.9383C2.08666 12.0042 2.79249 13.5692 4.36166 15.1383C6.4525 17.2283 9.09333 18.3333 12 18.3333C14.9067 18.3333 17.5475 17.2283 19.6383 15.1383C21.2075 13.5692 21.9133 12.0042 21.9425 11.9383C21.9804 11.8531 22 11.7608 22 11.6675C22 11.5742 21.9804 11.4819 21.9425 11.3967ZM12 17C9.435 17 7.19416 16.0675 5.33916 14.2292C4.57803 13.4723 3.93048 12.6091 3.41666 11.6667C3.93034 10.7241 4.57791 9.86098 5.33916 9.10417C7.19416 7.26584 9.435 6.33333 12 6.33333C14.565 6.33333 16.8058 7.26584 18.6608 9.10417C19.4235 9.8608 20.0724 10.7239 20.5875 11.6667C19.9867 12.7883 17.3692 17 12 17ZM12 7.66667C11.2089 7.66667 10.4355 7.90127 9.77772 8.34079C9.11992 8.78032 8.60723 9.40503 8.30448 10.1359C8.00173 10.8668 7.92251 11.6711 8.07686 12.447C8.2312 13.223 8.61216 13.9357 9.17157 14.4951C9.73098 15.0545 10.4437 15.4355 11.2196 15.5898C11.9956 15.7442 12.7998 15.6649 13.5307 15.3622C14.2616 15.0594 14.8864 14.5468 15.3259 13.889C15.7654 13.2312 16 12.4578 16 11.6667C15.9989 10.6061 15.5771 9.58937 14.8272 8.83946C14.0773 8.08955 13.0605 7.66777 12 7.66667ZM12 14.3333C11.4726 14.3333 10.957 14.1769 10.5185 13.8839C10.0799 13.5909 9.73815 13.1744 9.53632 12.6872C9.33449 12.1999 9.28168 11.6637 9.38457 11.1464C9.48746 10.6291 9.74144 10.154 10.1144 9.78105C10.4873 9.40811 10.9625 9.15414 11.4798 9.05124C11.997 8.94835 12.5332 9.00116 13.0205 9.20299C13.5078 9.40483 13.9242 9.74662 14.2173 10.1852C14.5103 10.6237 14.6667 11.1393 14.6667 11.6667C14.6667 12.3739 14.3857 13.0522 13.8856 13.5523C13.3855 14.0524 12.7072 14.3333 12 14.3333Z" fill="#414050"/>
</svg>
