<svg width="24" height="24" viewBox="0 0 24 24" fill="none" xmlns="http://www.w3.org/2000/svg">
<path d="M5.43213 4.67249C5.37358 4.6065 5.30252 4.55278 5.22306 4.51445C5.1436 4.47612 5.05733 4.45394 4.96923 4.4492C4.88114 4.44447 4.79298 4.45726 4.70987 4.48684C4.62676 4.51642 4.55034 4.56221 4.48505 4.62154C4.41977 4.68087 4.3669 4.75257 4.32953 4.83249C4.29216 4.9124 4.27102 4.99894 4.26733 5.08708C4.26365 5.17522 4.2775 5.26322 4.30808 5.34597C4.33865 5.42873 4.38535 5.50459 4.44546 5.56916L6.0488 7.33333C3.02213 9.19083 1.72046 12.0542 1.66296 12.1842C1.62506 12.2694 1.60547 12.3617 1.60547 12.455C1.60547 12.5483 1.62506 12.6406 1.66296 12.7258C1.69213 12.7917 2.39796 14.3567 3.96713 15.9258C6.05796 18.0158 8.6988 19.1208 11.6055 19.1208C13.0993 19.1293 14.5781 18.8218 15.9446 18.2183L17.778 20.2358C17.8365 20.3018 17.9076 20.3555 17.987 20.3939C18.0665 20.4322 18.1528 20.4544 18.2409 20.4591C18.329 20.4639 18.4171 20.4511 18.5002 20.4215C18.5833 20.3919 18.6598 20.3461 18.725 20.2868C18.7903 20.2275 18.8432 20.1558 18.8806 20.0758C18.9179 19.9959 18.9391 19.9094 18.9428 19.8212C18.9465 19.7331 18.9326 19.6451 18.902 19.5624C18.8714 19.4796 18.8248 19.4037 18.7646 19.3392L5.43213 4.67249ZM9.3763 10.9925L12.8488 14.8133C12.3259 15.0884 11.7264 15.1821 11.1445 15.0795C10.5626 14.977 10.0312 14.6841 9.63382 14.2468C9.23642 13.8096 8.9955 13.2527 8.94889 12.6637C8.90228 12.0746 9.05262 11.4868 9.3763 10.9925ZM11.6055 17.7875C9.04047 17.7875 6.79963 16.855 4.94463 15.0167C4.18323 14.26 3.53565 13.3968 3.02213 12.4542C3.41296 11.7217 4.66046 9.67166 6.96796 8.33916L8.46797 9.985C7.88725 10.7287 7.58816 11.6539 7.62358 12.5968C7.65899 13.5398 8.02662 14.4398 8.6615 15.1379C9.29637 15.836 10.1576 16.2872 11.093 16.4117C12.0283 16.5362 12.9776 16.326 13.773 15.8183L15.0005 17.1683C13.9171 17.584 12.7658 17.7939 11.6055 17.7875ZM12.1055 9.83499C11.9318 9.80184 11.7783 9.70104 11.6789 9.55476C11.5795 9.40848 11.5423 9.22871 11.5755 9.05499C11.6086 8.88128 11.7094 8.72785 11.8557 8.62845C12.002 8.52906 12.1818 8.49184 12.3555 8.52499C13.2051 8.68972 13.9788 9.1247 14.561 9.76507C15.1433 10.4054 15.5029 11.2169 15.5863 12.0783C15.6028 12.2544 15.5486 12.4297 15.4358 12.5659C15.323 12.702 15.1607 12.7877 14.9846 12.8042C14.9638 12.8054 14.943 12.8054 14.9221 12.8042C14.7555 12.8049 14.5947 12.7432 14.4713 12.6312C14.3479 12.5192 14.2709 12.3651 14.2555 12.1992C14.1994 11.6262 13.9598 11.0866 13.5724 10.6606C13.1851 10.2347 12.6706 9.94511 12.1055 9.83499ZM21.5455 12.7258C21.5105 12.8042 20.6663 14.6733 18.7655 16.3758C18.7005 16.4359 18.6243 16.4824 18.5412 16.5126C18.4581 16.5429 18.3698 16.5563 18.2815 16.5522C18.1931 16.548 18.1065 16.5263 18.0266 16.4883C17.9468 16.4503 17.8752 16.3968 17.8163 16.3309C17.7573 16.265 17.712 16.188 17.683 16.1044C17.6541 16.0209 17.6421 15.9324 17.6477 15.8441C17.6532 15.7558 17.6763 15.6696 17.7156 15.5903C17.7549 15.5111 17.8095 15.4404 17.8763 15.3825C18.8088 14.5447 19.5922 13.5545 20.193 12.4542C19.6783 11.5106 19.0293 10.6469 18.2663 9.89C16.4113 8.05333 14.1705 7.12083 11.6055 7.12083C11.065 7.12017 10.5254 7.16392 9.99213 7.25166C9.90541 7.267 9.81651 7.265 9.73056 7.24578C9.64462 7.22656 9.56333 7.19051 9.4914 7.1397C9.41947 7.08888 9.35832 7.02432 9.31148 6.94974C9.26464 6.87517 9.23304 6.79204 9.21851 6.70518C9.20398 6.61832 9.2068 6.52944 9.22681 6.44368C9.24683 6.35792 9.28363 6.27697 9.33511 6.20551C9.38659 6.13405 9.45171 6.0735 9.52672 6.02736C9.60173 5.98121 9.68514 5.95038 9.77213 5.93666C10.3781 5.8366 10.9913 5.78671 11.6055 5.78749C14.5121 5.78749 17.153 6.89249 19.2438 8.98333C20.813 10.5525 21.5188 12.1183 21.548 12.1842C21.5859 12.2694 21.6055 12.3617 21.6055 12.455C21.6055 12.5483 21.5859 12.6406 21.548 12.7258H21.5455Z" fill="#414050"/>
</svg>
