<svg width="25" height="24" viewBox="0 0 25 24" fill="none" xmlns="http://www.w3.org/2000/svg">
<rect x="1.5" y="1" width="22" height="22" rx="11" fill="#E3E2E5"/>
<rect x="1.5" y="1" width="22" height="22" rx="11" stroke="white" stroke-width="2"/>
<path d="M17.5769 11.5769C17.0159 11.5769 16.4778 11.3541 16.0811 10.9573C15.6844 10.5606 15.4615 10.0226 15.4615 9.46154C15.4615 9.34933 15.417 9.24172 15.3376 9.16238C15.2583 9.08304 15.1507 9.03846 15.0385 9.03846C14.4774 9.03846 13.9394 8.81559 13.5427 8.41888C13.1459 8.02217 12.9231 7.48411 12.9231 6.92308C12.9231 6.81087 12.8785 6.70326 12.7992 6.62392C12.7198 6.54457 12.6122 6.5 12.5 6.5C11.4122 6.5 10.3488 6.82257 9.44437 7.42692C8.5399 8.03126 7.83495 8.89025 7.41866 9.89524C7.00238 10.9002 6.89346 12.0061 7.10568 13.073C7.3179 14.1399 7.84173 15.1199 8.61091 15.8891C9.3801 16.6583 10.3601 17.1821 11.427 17.3943C12.4939 17.6065 13.5998 17.4976 14.6048 17.0813C15.6098 16.6651 16.4687 15.9601 17.0731 15.0556C17.6774 14.1512 18 13.0878 18 12C18 11.8878 17.9554 11.7802 17.8761 11.7008C17.7967 11.6215 17.6891 11.5769 17.5769 11.5769ZM9.72409 10.4933C9.81293 10.4048 9.92601 10.3446 10.0491 10.3203C10.1721 10.2959 10.2996 10.3086 10.4154 10.3567C10.5312 10.4048 10.6302 10.4862 10.6999 10.5905C10.7695 10.6948 10.8067 10.8174 10.8067 10.9428C10.8067 11.0683 10.7695 11.1909 10.6999 11.2952C10.6302 11.3995 10.5312 11.4808 10.4154 11.5289C10.2996 11.577 10.1721 11.5897 10.0491 11.5654C9.92601 11.5411 9.81293 11.4809 9.72409 11.3924C9.66493 11.3334 9.61798 11.2633 9.58595 11.1862C9.55392 11.1091 9.53743 11.0264 9.53743 10.9428C9.53743 10.8593 9.55392 10.7766 9.58595 10.6995C9.61798 10.6223 9.66493 10.5523 9.72409 10.4933ZM11.0462 14.3539C10.9574 14.4424 10.8443 14.5026 10.7212 14.527C10.5982 14.5513 10.4707 14.5386 10.3549 14.4905C10.239 14.4424 10.1401 14.361 10.0704 14.2567C10.0008 14.1524 9.96363 14.0298 9.96363 13.9044C9.96363 13.779 10.0008 13.6563 10.0704 13.552C10.1401 13.4477 10.239 13.3664 10.3549 13.3183C10.4707 13.2702 10.5982 13.2575 10.7212 13.2818C10.8443 13.3061 10.9574 13.3663 11.0462 13.4549C11.1051 13.5139 11.1519 13.5839 11.1837 13.661C11.2156 13.7381 11.2319 13.8207 11.2318 13.9041C11.2317 13.9875 11.2152 14.07 11.1831 14.147C11.1511 14.224 11.1042 14.294 11.0451 14.3528L11.0462 14.3539ZM12.2625 12.2385C12.174 12.1497 12.1138 12.0366 12.0895 11.9135C12.0652 11.7905 12.0779 11.663 12.126 11.5472C12.1741 11.4313 12.2554 11.3324 12.3597 11.2627C12.464 11.1931 12.5866 11.1559 12.7121 11.1559C12.8375 11.1559 12.9601 11.1931 13.0644 11.2627C13.1687 11.3324 13.2501 11.4313 13.2982 11.5472C13.3463 11.663 13.359 11.7905 13.3347 11.9135C13.3103 12.0366 13.2501 12.1497 13.1616 12.2385C13.1026 12.2976 13.0324 12.3445 12.9553 12.3764C12.8781 12.4083 12.7954 12.4247 12.7118 12.4246C12.6283 12.4245 12.5456 12.408 12.4685 12.3758C12.3914 12.3437 12.3214 12.2967 12.2625 12.2375V12.2385ZM14.4308 14.777C14.342 14.8655 14.2289 14.9257 14.1059 14.95C13.9828 14.9743 13.8553 14.9616 13.7395 14.9135C13.6237 14.8654 13.5247 14.7841 13.455 14.6798C13.3854 14.5755 13.3482 14.4529 13.3482 14.3275C13.3482 14.202 13.3854 14.0794 13.455 13.9751C13.5247 13.8708 13.6237 13.7895 13.7395 13.7414C13.8553 13.6933 13.9828 13.6806 14.1059 13.7049C14.2289 13.7292 14.342 13.7894 14.4308 13.8779C14.4898 13.9369 14.5365 14.007 14.5683 14.0841C14.6002 14.1611 14.6165 14.2437 14.6164 14.3271C14.6163 14.4105 14.5998 14.4931 14.5678 14.5701C14.5357 14.6471 14.4888 14.717 14.4298 14.7759L14.4308 14.777Z" fill="#414050"/>
</svg>
