<svg width="164" height="16" viewBox="0 0 164 16" fill="none" xmlns="http://www.w3.org/2000/svg">
<path d="M7.68 15.26C6.73333 15.26 5.84333 15.0733 5.01 14.7C4.17667 14.32 3.44333 13.7967 2.81 13.13C2.18333 12.4633 1.69 11.6933 1.33 10.82C0.976667 9.94 0.8 9 0.8 8C0.8 6.99333 0.976667 6.05333 1.33 5.18C1.69 4.3 2.18333 3.53 2.81 2.87C3.44333 2.20333 4.17667 1.68333 5.01 1.31C5.84333 0.929999 6.73333 0.739999 7.68 0.739999C8.81333 0.739999 9.85667 1.00333 10.81 1.53C11.7633 2.05 12.5533 2.74667 13.18 3.62L11 4.79C10.6067 4.30333 10.1167 3.91333 9.53 3.62C8.95 3.32667 8.33333 3.18 7.68 3.18C7.06667 3.18 6.49 3.30667 5.95 3.56C5.41 3.80667 4.93667 4.15333 4.53 4.6C4.12333 5.04 3.80667 5.55333 3.58 6.14C3.35333 6.72 3.24 7.34 3.24 8C3.24 8.66667 3.35333 9.29 3.58 9.87C3.81333 10.45 4.13333 10.9633 4.54 11.41C4.94667 11.85 5.41667 12.1967 5.95 12.45C6.49 12.6967 7.06667 12.82 7.68 12.82C8.34667 12.82 8.96667 12.6733 9.54 12.38C10.12 12.08 10.6067 11.6867 11 11.2L13.18 12.38C12.5533 13.2467 11.7633 13.9433 10.81 14.47C9.85667 14.9967 8.81333 15.26 7.68 15.26ZM23.4691 15.26C22.4957 15.26 21.5891 15.07 20.7491 14.69C19.9157 14.31 19.1891 13.7867 18.5691 13.12C17.9491 12.4467 17.4624 11.6733 17.1091 10.8C16.7624 9.92 16.5891 8.98 16.5891 7.98C16.5891 6.92667 16.7757 5.96 17.1491 5.08C17.5291 4.2 18.0457 3.43667 18.6991 2.79C19.3524 2.14333 20.0924 1.64333 20.9191 1.29C21.7524 0.936666 22.6191 0.76 23.5191 0.76C24.5257 0.76 25.5024 0.996666 26.4491 1.47C27.4024 1.93667 28.2424 2.66 28.9691 3.64L26.7891 4.81C26.3424 4.26333 25.8291 3.85667 25.2491 3.59C24.6757 3.31667 24.0891 3.18 23.4891 3.18C22.9024 3.18 22.3391 3.3 21.7991 3.54C21.2657 3.78 20.7891 4.12 20.3691 4.56C19.9557 4.99333 19.6291 5.50667 19.3891 6.1C19.1491 6.68667 19.0291 7.33 19.0291 8.03C19.0291 8.69 19.1457 9.31333 19.3791 9.9C19.6124 10.48 19.9324 10.99 20.3391 11.43C20.7524 11.8633 21.2291 12.2033 21.7691 12.45C22.3091 12.6967 22.8891 12.82 23.5091 12.82C23.9224 12.82 24.3257 12.7567 24.7191 12.63C25.1191 12.4967 25.4924 12.3067 25.8391 12.06C26.1924 11.8133 26.5057 11.5133 26.7791 11.16C27.0591 10.8067 27.2924 10.4067 27.4791 9.96H24.9291V7.83H30.3491C30.3757 8.85 30.2157 9.80667 29.8691 10.7C29.5224 11.5933 29.0324 12.3833 28.3991 13.07C27.7657 13.7567 27.0291 14.2933 26.1891 14.68C25.3491 15.0667 24.4424 15.26 23.4691 15.26ZM33.6766 15L36.3966 0.999999H38.4166L41.8266 9.97L45.2366 0.999999H47.2566L49.9766 15H47.4866L45.8066 6.34L42.6566 14.68H40.9866L37.8366 6.34L36.1666 15H33.6766ZM54.368 15L57.088 0.999999H59.108L62.518 9.97L65.928 0.999999H67.948L70.668 15H68.178L66.498 6.34L63.348 14.68H61.678L58.528 6.34L56.858 15H54.368ZM74.6883 15V0.999999H83.4683V3.44H77.1283V6.28H82.1583V8.72H77.1283V12.56H83.4683V15H74.6883Z" fill="#414050"/>
<path d="M93.1248 15.26C92.1782 15.26 91.3148 15.0733 90.5348 14.7C89.7548 14.32 89.0948 13.7967 88.5548 13.13C88.0215 12.4633 87.6382 11.6933 87.4048 10.82C87.1715 9.94 87.1248 9 87.2648 8C87.4048 6.99333 87.7148 6.05333 88.1948 5.18C88.6748 4.3 89.2748 3.53 89.9948 2.87C90.7215 2.20333 91.5282 1.68333 92.4148 1.31C93.3015 0.929999 94.2182 0.739999 95.1648 0.739999C96.2982 0.739999 97.3048 1.00333 98.1848 1.53C99.0648 2.05 99.7582 2.74667 100.265 3.62L97.3748 5.06C97.0882 4.66 96.7182 4.34 96.2648 4.1C95.8115 3.86 95.3048 3.74 94.7448 3.74C94.2115 3.74 93.6948 3.85 93.1948 4.07C92.6948 4.29 92.2382 4.59667 91.8248 4.99C91.4115 5.37667 91.0682 5.82667 90.7948 6.34C90.5215 6.85333 90.3448 7.40667 90.2648 8C90.1848 8.58667 90.2082 9.13667 90.3348 9.65C90.4615 10.1633 90.6748 10.6167 90.9748 11.01C91.2748 11.3967 91.6448 11.7033 92.0848 11.93C92.5248 12.15 93.0115 12.26 93.5448 12.26C94.1048 12.26 94.6448 12.14 95.1648 11.9C95.6848 11.6533 96.1482 11.3267 96.5548 10.92L99.0248 12.38C98.2782 13.2467 97.3915 13.9433 96.3648 14.47C95.3382 14.9967 94.2582 15.26 93.1248 15.26ZM108.817 15.26C107.87 15.26 107.003 15.0733 106.217 14.7C105.437 14.32 104.777 13.7967 104.237 13.13C103.703 12.4633 103.317 11.6933 103.077 10.82C102.843 9.94 102.797 9 102.937 8C103.077 7 103.387 6.06333 103.867 5.19C104.347 4.31 104.95 3.53667 105.677 2.87C106.41 2.20333 107.22 1.68333 108.107 1.31C108.993 0.929999 109.91 0.739999 110.857 0.739999C111.81 0.739999 112.677 0.929999 113.457 1.31C114.237 1.68333 114.893 2.20333 115.427 2.87C115.967 3.53667 116.353 4.31 116.587 5.19C116.827 6.06333 116.877 7 116.737 8C116.597 9 116.287 9.94 115.807 10.82C115.327 11.6933 114.72 12.4633 113.987 13.13C113.26 13.7967 112.453 14.32 111.567 14.7C110.687 15.0733 109.77 15.26 108.817 15.26ZM109.237 12.26C109.77 12.26 110.287 12.15 110.787 11.93C111.293 11.7033 111.753 11.3967 112.167 11.01C112.58 10.6167 112.923 10.1633 113.197 9.65C113.477 9.13667 113.657 8.58667 113.737 8C113.817 7.41333 113.79 6.86333 113.657 6.35C113.53 5.83667 113.313 5.38667 113.007 5C112.707 4.60667 112.337 4.3 111.897 4.08C111.457 3.85333 110.97 3.74 110.437 3.74C109.903 3.74 109.383 3.85333 108.877 4.08C108.377 4.3 107.92 4.60667 107.507 5C107.093 5.38667 106.747 5.83667 106.467 6.35C106.193 6.86333 106.017 7.41333 105.937 8C105.857 8.58667 105.88 9.13667 106.007 9.65C106.14 10.1633 106.357 10.6167 106.657 11.01C106.963 11.3967 107.337 11.7033 107.777 11.93C108.217 12.15 108.703 12.26 109.237 12.26ZM125.196 0.999999H128.576L131.696 15H128.516L128.026 12.8H122.446L121.336 15H118.156L125.196 0.999999ZM123.966 9.8H127.346L126.296 5.16L123.966 9.8ZM140.941 15.26C139.995 15.26 139.131 15.0733 138.351 14.7C137.571 14.32 136.911 13.7967 136.371 13.13C135.838 12.4633 135.455 11.6933 135.221 10.82C134.988 9.94 134.941 9 135.081 8C135.221 6.99333 135.531 6.05333 136.011 5.18C136.491 4.3 137.091 3.53 137.811 2.87C138.538 2.20333 139.345 1.68333 140.231 1.31C141.118 0.929999 142.035 0.739999 142.981 0.739999C144.115 0.739999 145.121 1.00333 146.001 1.53C146.881 2.05 147.575 2.74667 148.081 3.62L145.191 5.06C144.905 4.66 144.535 4.34 144.081 4.1C143.628 3.86 143.121 3.74 142.561 3.74C142.028 3.74 141.511 3.85 141.011 4.07C140.511 4.29 140.055 4.59667 139.641 4.99C139.228 5.37667 138.885 5.82667 138.611 6.34C138.338 6.85333 138.161 7.40667 138.081 8C138.001 8.58667 138.025 9.13667 138.151 9.65C138.278 10.1633 138.491 10.6167 138.791 11.01C139.091 11.3967 139.461 11.7033 139.901 11.93C140.341 12.15 140.828 12.26 141.361 12.26C141.921 12.26 142.461 12.14 142.981 11.9C143.501 11.6533 143.965 11.3267 144.371 10.92L146.841 12.38C146.095 13.2467 145.208 13.9433 144.181 14.47C143.155 14.9967 142.075 15.26 140.941 15.26ZM160.191 0.999999H163.191L161.231 15H158.231L159.071 9H154.111L153.271 15H150.271L152.231 0.999999H155.231L154.531 6H159.491L160.191 0.999999Z" fill="#8460B3"/>
</svg>
