<svg width="20" height="20" viewBox="0 0 20 20" fill="none" xmlns="http://www.w3.org/2000/svg">
<path d="M11.2016 1.3944C11.1245 1.33035 11.0332 1.28575 10.9353 1.26438C10.8374 1.24301 10.7358 1.24549 10.6391 1.27161C10.5424 1.29772 10.4533 1.34671 10.3795 1.41445C10.3056 1.48219 10.2492 1.56668 10.2148 1.66081L8.49609 6.38034L6.60859 4.55144C6.54521 4.48996 6.46951 4.44261 6.38649 4.41251C6.30347 4.38241 6.21502 4.37024 6.12696 4.37681C6.0389 4.38338 5.95323 4.40853 5.87559 4.45062C5.79796 4.4927 5.73013 4.55076 5.67656 4.62097C3.98438 6.83815 3.125 9.06862 3.125 11.2499C3.125 13.0732 3.84933 14.8219 5.13864 16.1112C6.42795 17.4005 8.17664 18.1249 10 18.1249C11.8234 18.1249 13.572 17.4005 14.8614 16.1112C16.1507 14.8219 16.875 13.0732 16.875 11.2499C16.875 6.60534 12.907 2.81237 11.2016 1.3944Z" fill="#E6834A"/>
</svg>
