<svg width="20" height="20" viewBox="0 0 20 20" fill="none" xmlns="http://www.w3.org/2000/svg">
<g clip-path="url(#clip0_507_2341)">
<path d="M16.8798 15V15.9375C16.8798 16.684 16.5832 17.4 16.0553 17.9279C15.5274 18.4558 14.8115 18.7523 14.0649 18.7523C13.3184 18.7523 12.6024 18.4558 12.0745 17.9279C11.5466 17.4 11.2501 16.684 11.2501 15.9375V15C11.2501 14.8342 11.3159 14.6753 11.4331 14.5581C11.5503 14.4408 11.7093 14.375 11.8751 14.375H16.2501C16.3325 14.3744 16.4143 14.3901 16.4907 14.4212C16.5671 14.4524 16.6365 14.4983 16.695 14.5564C16.7536 14.6145 16.8 14.6836 16.8317 14.7597C16.8634 14.8359 16.8798 14.9175 16.8798 15ZM8.12507 12.5H3.75007C3.58431 12.5 3.42534 12.5658 3.30813 12.6831C3.19092 12.8003 3.12507 12.9592 3.12507 13.125V14.0625C3.12507 14.8084 3.42138 15.5238 3.94883 16.0512C4.47628 16.5787 5.19165 16.875 5.93757 16.875C6.68349 16.875 7.39886 16.5787 7.9263 16.0512C8.45375 15.5238 8.75007 14.8084 8.75007 14.0625V13.125C8.75007 12.9592 8.68422 12.8003 8.56701 12.6831C8.4498 12.5658 8.29083 12.5 8.12507 12.5ZM5.93757 1.25C5.02819 1.25 4.14616 2.05547 3.45319 3.51562C2.36491 5.81094 2.00319 9.21875 3.47585 11.0156C3.53457 11.0873 3.60849 11.145 3.69227 11.1846C3.77604 11.2242 3.86757 11.2447 3.96022 11.2445H7.90944C8.0021 11.2447 8.09363 11.2242 8.1774 11.1846C8.26117 11.145 8.3351 11.0873 8.39382 11.0156C9.86647 9.21875 9.50476 5.80859 8.41647 3.51562C7.72272 2.05547 6.84147 1.25 5.93757 1.25ZM12.0938 13.125H16.043C16.1357 13.1251 16.2272 13.1047 16.311 13.0651C16.3948 13.0255 16.4687 12.9678 16.5274 12.8961C18.0001 11.0992 17.6383 7.68906 16.5501 5.39609C15.854 3.93047 14.9719 3.125 14.0626 3.125C13.1532 3.125 12.2743 3.93047 11.5805 5.39062C10.4923 7.68594 10.1305 11.0937 11.6032 12.8906C11.6617 12.9637 11.7359 13.0227 11.8203 13.0633C11.9047 13.1038 11.9971 13.1249 12.0907 13.125H12.0938Z" fill="#3B8AAB"/>
</g>
<defs>
<clipPath id="clip0_507_2341">
<rect width="20" height="20" fill="white"/>
</clipPath>
</defs>
</svg>
