<svg width="32" height="32" viewBox="0 0 32 32" fill="none" xmlns="http://www.w3.org/2000/svg">
<rect width="32" height="32" rx="16" fill="#DEF5F0"/>
<path d="M16 7.875C14.393 7.875 12.8221 8.35152 11.486 9.24431C10.1498 10.1371 9.10844 11.406 8.49348 12.8907C7.87852 14.3753 7.71762 16.009 8.03112 17.5851C8.34463 19.1612 9.11846 20.6089 10.2548 21.7452C11.3911 22.8815 12.8388 23.6554 14.4149 23.9689C15.991 24.2824 17.6247 24.1215 19.1093 23.5065C20.594 22.8916 21.8629 21.8502 22.7557 20.514C23.6485 19.1779 24.125 17.607 24.125 16C24.1227 13.8458 23.266 11.7805 21.7427 10.2573C20.2195 8.73403 18.1542 7.87727 16 7.875ZM13.1875 13.5C13.3729 13.5 13.5542 13.555 13.7084 13.658C13.8625 13.761 13.9827 13.9074 14.0536 14.0787C14.1246 14.25 14.1432 14.4385 14.107 14.6204C14.0708 14.8023 13.9815 14.9693 13.8504 15.1004C13.7193 15.2315 13.5523 15.3208 13.3704 15.357C13.1885 15.3932 13 15.3746 12.8287 15.3036C12.6574 15.2327 12.511 15.1125 12.408 14.9583C12.305 14.8042 12.25 14.6229 12.25 14.4375C12.25 14.1889 12.3488 13.9504 12.5246 13.7746C12.7004 13.5988 12.9389 13.5 13.1875 13.5ZM19.6656 18.1875C18.8617 19.5773 17.5258 20.375 16 20.375C14.4742 20.375 13.1383 19.5781 12.3344 18.1875C12.2892 18.1164 12.2588 18.0368 12.2451 17.9536C12.2314 17.8705 12.2347 17.7854 12.2548 17.7035C12.2748 17.6216 12.3112 17.5447 12.3618 17.4772C12.4124 17.4098 12.4761 17.3533 12.549 17.3111C12.622 17.2689 12.7028 17.2419 12.7865 17.2318C12.8701 17.2216 12.955 17.2285 13.036 17.252C13.1169 17.2754 13.1923 17.3151 13.2575 17.3684C13.3228 17.4218 13.3766 17.4878 13.4156 17.5625C13.9992 18.5711 14.9164 19.125 16 19.125C17.0836 19.125 18.0008 18.5703 18.5844 17.5625C18.6235 17.4878 18.6772 17.4218 18.7425 17.3684C18.8077 17.3151 18.8831 17.2754 18.964 17.252C19.045 17.2285 19.1299 17.2216 19.2135 17.2318C19.2972 17.2419 19.378 17.2689 19.451 17.3111C19.5239 17.3533 19.5876 17.4098 19.6382 17.4772C19.6888 17.5447 19.7252 17.6216 19.7452 17.7035C19.7653 17.7854 19.7686 17.8705 19.7549 17.9536C19.7412 18.0368 19.7108 18.1164 19.6656 18.1875ZM18.8125 15.375C18.6271 15.375 18.4458 15.32 18.2917 15.217C18.1375 15.114 18.0173 14.9676 17.9464 14.7963C17.8754 14.625 17.8568 14.4365 17.893 14.2546C17.9292 14.0727 18.0185 13.9057 18.1496 13.7746C18.2807 13.6435 18.4477 13.5542 18.6296 13.518C18.8115 13.4818 19 13.5004 19.1713 13.5714C19.3426 13.6423 19.489 13.7625 19.592 13.9167C19.695 14.0708 19.75 14.2521 19.75 14.4375C19.75 14.6861 19.6512 14.9246 19.4754 15.1004C19.2996 15.2762 19.0611 15.375 18.8125 15.375Z" fill="#52B4A8"/>
</svg>
