<svg width="401" height="161" viewBox="0 0 401 161" fill="none" xmlns="http://www.w3.org/2000/svg">
<rect width="80" height="80" transform="translate(240.5 80.5)" fill="#FAF4D3"/>
<rect width="80" height="80" transform="translate(320.5 80.5)" fill="#E7F4FB"/>
<rect width="80" height="80" transform="translate(160.5 0.5)" fill="#FAF4D3"/>
<rect width="80" height="80" transform="translate(80.5 0.5)" fill="#F0E6FE"/>
<rect width="80" height="80" transform="translate(0.5 80.5)" fill="#DEF5F0"/>
<rect width="80" height="80" transform="translate(240.5 0.5)" fill="#FFE4F4"/>
<path d="M234.75 75.9562V59.25C234.75 57.2609 233.96 55.3532 232.553 53.9467C231.147 52.5402 229.239 51.75 227.25 51.75H174.75C172.761 51.75 170.853 52.5402 169.447 53.9467C168.04 55.3532 167.25 57.2609 167.25 59.25V76.125C167.253 77.2889 167.525 78.4364 168.045 79.4774C168.566 80.5184 169.32 81.4246 170.25 82.125L194.752 100.5L170.25 118.875C169.32 119.575 168.566 120.482 168.045 121.523C167.525 122.564 167.253 123.711 167.25 124.875V141.75C167.25 143.739 168.04 145.647 169.447 147.053C170.853 148.46 172.761 149.25 174.75 149.25H227.25C229.239 149.25 231.147 148.46 232.553 147.053C233.96 145.647 234.75 143.739 234.75 141.75V125.044C234.747 123.884 234.477 122.741 233.961 121.703C233.445 120.665 232.696 119.76 231.773 119.058L207.22 100.5L231.773 81.9422C232.696 81.2403 233.445 80.3352 233.961 79.297C234.477 78.2589 234.747 77.1157 234.75 75.9562ZM227.25 59.25V70.5H174.75V59.25H227.25ZM227.25 141.75H174.75V124.875L201 105.188L227.25 125.039V141.75Z" fill="#8460B3"/>
</svg>
