<svg width="24" height="24" viewBox="0 0 24 24" fill="none" xmlns="http://www.w3.org/2000/svg">
<path d="M17.3333 4H6.66667C6 4 5.22583 4.1075 4.66667 4.66667C4.1075 5.22583 4 6 4 6.5472V17.3333C4 18 4 18.6667 4.66667 19.3333C5.33333 20 6 20 6.66667 20H17.3333C18.3333 20 19 19.6667 19.3333 19.3333C19.8355 18.8312 20 18 20 17.3333V6.66667C20 6 19.8382 5.17157 19.3333 4.66667C18.8284 4.16176 18 4 17.3333 4ZM15.805 10.4717L11.1383 15.1383C11.0764 15.2003 11.0029 15.2495 10.922 15.283C10.841 15.3166 10.7543 15.3339 10.6667 15.3339C10.5791 15.3339 10.4923 15.3166 10.4114 15.283C10.3304 15.2495 10.2569 15.2003 10.195 15.1383L8.195 13.1383C8.06991 13.0132 7.99963 12.8436 7.99963 12.6667C7.99963 12.4898 8.06991 12.3201 8.195 12.195C8.32009 12.0699 8.48976 11.9996 8.66667 11.9996C8.84358 11.9996 9.01324 12.0699 9.13833 12.195L10.6667 13.7242L14.8617 9.52833C14.9236 9.46639 14.9971 9.41726 15.0781 9.38374C15.159 9.35022 15.2457 9.33296 15.3333 9.33296C15.4209 9.33296 15.5077 9.35022 15.5886 9.38374C15.6695 9.41726 15.7431 9.46639 15.805 9.52833C15.8669 9.59027 15.9161 9.66381 15.9496 9.74474C15.9831 9.82566 16.0004 9.9124 16.0004 10C16.0004 10.0876 15.9831 10.1743 15.9496 10.2553C15.9161 10.3362 15.8669 10.4097 15.805 10.4717Z" fill="#8460B3"/>
</svg>
