<svg width="24" height="24" viewBox="0 0 24 24" fill="none" xmlns="http://www.w3.org/2000/svg">
<rect x="1" y="1" width="22" height="22" rx="11" fill="#F0E6FE"/>
<rect x="1" y="1" width="22" height="22" rx="11" stroke="white" stroke-width="2"/>
<path d="M17.8811 13.2146C17.5278 14.3679 16.8197 15.3804 15.8577 16.1081C15.013 16.7438 14.0079 17.1315 12.9551 17.2277C11.9023 17.3239 10.8436 17.1248 9.89767 16.6527C8.95177 16.1806 8.15617 15.4542 7.60017 14.5551C7.04416 13.6559 6.74977 12.6196 6.75003 11.5625C6.74623 10.3285 7.14736 9.12741 7.8919 8.1434C8.61954 7.18133 9.63207 6.47326 10.7854 6.11996C10.8614 6.09655 10.9424 6.09431 11.0196 6.11348C11.0968 6.13264 11.1673 6.17249 11.2235 6.22873C11.2798 6.28497 11.3196 6.35548 11.3388 6.43267C11.3579 6.50986 11.3557 6.59082 11.3323 6.66683C11.0801 7.50105 11.059 8.38806 11.2711 9.23335C11.4833 10.0786 11.9208 10.8505 12.537 11.4668C13.1533 12.083 13.9252 12.5205 14.7705 12.7327C15.6157 12.9449 16.5028 12.9237 17.337 12.6715C17.413 12.6481 17.494 12.6459 17.5711 12.665C17.6483 12.6842 17.7188 12.724 17.7751 12.7803C17.8313 12.8365 17.8712 12.907 17.8903 12.9842C17.9095 13.0614 17.9073 13.1424 17.8839 13.2184L17.8811 13.2146Z" fill="#8460B3"/>
</svg>
