<svg width="24" height="24" viewBox="0 0 24 24" fill="none" xmlns="http://www.w3.org/2000/svg">
<rect x="1" y="1" width="22" height="22" rx="11" fill="#F7E9E1"/>
<rect x="1" y="1" width="22" height="22" rx="11" stroke="white" stroke-width="2"/>
<path d="M12.8411 5.97608C12.7872 5.93124 12.7232 5.90003 12.6547 5.88507C12.5862 5.87011 12.5151 5.87184 12.4474 5.89012C12.3796 5.90841 12.3173 5.9427 12.2656 5.99012C12.214 6.03753 12.1744 6.09668 12.1504 6.16257L10.9473 9.46624L9.62602 8.18601C9.58164 8.14297 9.52866 8.10982 9.47054 8.08875C9.41243 8.06768 9.35051 8.05917 9.28887 8.06377C9.22723 8.06836 9.16726 8.08597 9.11292 8.11543C9.05857 8.14489 9.01109 8.18553 8.97359 8.23468C7.78906 9.78671 7.1875 11.348 7.1875 12.8749C7.1875 14.1513 7.69453 15.3753 8.59705 16.2779C9.49957 17.1804 10.7236 17.6874 12 17.6874C13.2764 17.6874 14.5004 17.1804 15.403 16.2779C16.3055 15.3753 16.8125 14.1513 16.8125 12.8749C16.8125 9.62374 14.0349 6.96866 12.8411 5.97608Z" fill="#E6834A"/>
</svg>
