<svg width="24" height="24" viewBox="0 0 24 24" fill="none" xmlns="http://www.w3.org/2000/svg">
<rect x="1" y="1" width="22" height="22" rx="11" fill="#ECD1D5"/>
<rect x="1" y="1" width="22" height="22" rx="11" stroke="white" stroke-width="2"/>
<path d="M18.125 10.5781C18.125 14.4062 12.449 17.5048 12.2073 17.6328C12.1436 17.6671 12.0723 17.685 12 17.685C11.9277 17.685 11.8564 17.6671 11.7927 17.6328C11.6095 17.5344 8.31734 15.7357 6.7243 13.2091C6.70375 13.176 6.69241 13.1381 6.69145 13.0991C6.6905 13.0602 6.69996 13.0217 6.71886 12.9876C6.73776 12.9536 6.76541 12.9252 6.79896 12.9054C6.83251 12.8856 6.87073 12.8751 6.90969 12.875H8.9375C9.00955 12.875 9.08049 12.8573 9.14403 12.8233C9.20757 12.7894 9.26173 12.7402 9.30172 12.6803L9.8125 11.9147L11.1983 13.9928C11.2514 14.0724 11.3291 14.1325 11.4196 14.1637C11.5101 14.1949 11.6083 14.1956 11.6992 14.1656C11.7957 14.133 11.8782 14.0686 11.9333 13.983L12.6716 12.875H13.75C13.81 12.8751 13.8693 12.8629 13.9244 12.8392C13.9795 12.8154 14.029 12.7805 14.0701 12.7368C14.1111 12.693 14.1427 12.6413 14.1629 12.5849C14.1831 12.5284 14.1915 12.4684 14.1875 12.4085C14.1777 12.2961 14.1258 12.1915 14.0421 12.1157C13.9584 12.0399 13.8492 11.9986 13.7363 12H12.4375C12.3655 12 12.2945 12.0177 12.231 12.0517C12.1674 12.0856 12.1133 12.1348 12.0733 12.1947L11.5625 12.9603L10.1767 10.8822C10.1236 10.8024 10.0457 10.7423 9.95515 10.7111C9.86455 10.6799 9.76621 10.6793 9.67523 10.7094C9.57904 10.7422 9.49676 10.8066 9.44172 10.892L8.70344 12H6.2868C6.24005 12.0001 6.19448 11.9853 6.15679 11.9576C6.11909 11.93 6.09125 11.891 6.07734 11.8463C5.94539 11.4364 5.87715 11.0087 5.875 10.5781C5.87601 9.67919 6.23356 8.81736 6.86921 8.18171C7.50486 7.54606 8.36669 7.18851 9.26562 7.1875C10.3949 7.1875 11.3837 7.67312 12 8.49398C12.6163 7.67312 13.6051 7.1875 14.7344 7.1875C15.6333 7.18851 16.4951 7.54606 17.1308 8.18171C17.7664 8.81736 18.124 9.67919 18.125 10.5781Z" fill="#B54957"/>
</svg>
