<svg width="24" height="24" viewBox="0 0 24 24" fill="none" xmlns="http://www.w3.org/2000/svg">
<rect x="1" y="1" width="22" height="22" rx="11" fill="#FFE4F4"/>
<rect x="1" y="1" width="22" height="22" rx="11" stroke="white" stroke-width="2"/>
<g clip-path="url(#clip0_763_20276)">
<path d="M16.8354 7.16562C16.2891 6.61937 15.5481 6.3125 14.7756 6.3125C14.003 6.3125 13.2621 6.61937 12.7158 7.16562L7.16499 12.7159C6.6302 13.2644 6.33306 14.0016 6.33795 14.7677C6.34284 15.5338 6.64937 16.2671 7.19112 16.8088C7.73288 17.3505 8.46624 17.6569 9.23234 17.6617C9.99843 17.6665 10.7356 17.3692 11.2841 16.8344L16.8354 11.2841C17.3806 10.7375 17.6868 9.99695 17.6868 9.22487C17.6868 8.4528 17.3806 7.71225 16.8354 7.16562ZM16.2163 10.6656L13.4409 13.4405L10.5594 10.5595L13.3348 7.78413C13.7185 7.40937 14.2344 7.20096 14.7706 7.20409C15.3069 7.20722 15.8204 7.42165 16.1996 7.80087C16.5788 8.18009 16.7932 8.69352 16.7964 9.2298C16.7995 9.76609 16.5911 10.282 16.2163 10.6656ZM15.3725 9.50296C15.4132 9.54359 15.4454 9.59184 15.4675 9.64496C15.4895 9.69807 15.5008 9.755 15.5008 9.81249C15.5008 9.86999 15.4895 9.92692 15.4675 9.98003C15.4454 10.0331 15.4132 10.0814 15.3725 10.122L14.06 11.4345C14.0193 11.4751 13.9711 11.5073 13.918 11.5293C13.8649 11.5513 13.808 11.5626 13.7505 11.5625C13.6931 11.5625 13.6362 11.5512 13.5831 11.5292C13.53 11.5071 13.4818 11.4749 13.4412 11.4342C13.4006 11.3936 13.3684 11.3454 13.3464 11.2923C13.3245 11.2392 13.3132 11.1823 13.3132 11.1248C13.3132 11.0673 13.3246 11.0104 13.3466 10.9574C13.3686 10.9043 13.4008 10.8561 13.4415 10.8155L14.754 9.50296C14.836 9.42097 14.9473 9.37492 15.0632 9.37492C15.1792 9.37492 15.2905 9.42097 15.3725 9.50296Z" fill="#C0448E"/>
</g>
<defs>
<clipPath id="clip0_763_20276">
<rect width="14" height="14" fill="white" transform="translate(5 5)"/>
</clipPath>
</defs>
</svg>
