<svg width="24" height="24" viewBox="0 0 24 24" fill="none" xmlns="http://www.w3.org/2000/svg">
<path d="M20.2897 3.7125C19.3533 2.77613 18.0833 2.25009 16.7591 2.25009C15.4348 2.25009 14.1648 2.77613 13.2284 3.7125L3.71281 13.2272C2.79602 14.1676 2.28664 15.4313 2.29502 16.7446C2.30341 18.0579 2.82888 19.315 3.75761 20.2436C4.68634 21.1722 5.94352 21.6975 7.25683 21.7057C8.57013 21.714 9.83379 21.2044 10.7741 20.2875L20.2906 10.7728C21.2254 9.83573 21.7503 8.56608 21.7502 7.24246C21.75 5.91883 21.2247 4.64933 20.2897 3.7125ZM9.71375 19.2272C9.0587 19.8824 8.17022 20.2505 7.24376 20.2506C6.31731 20.2506 5.42876 19.8827 4.77359 19.2277C4.11842 18.5726 3.7503 17.6841 3.75022 16.7577C3.75013 15.8312 4.11808 14.9427 4.77312 14.2875L9.00031 10.0603L13.9409 15L9.71375 19.2272ZM19.2294 9.7125L15.0003 13.9397L10.0616 9L14.2897 4.77281C14.9473 4.13036 15.8317 3.77308 16.7511 3.77845C17.6704 3.78382 18.5506 4.15141 19.2007 4.8015C19.8508 5.45159 20.2184 6.33176 20.2237 7.2511C20.2291 8.17045 19.8718 9.05486 19.2294 9.7125ZM17.7828 7.71937C17.8525 7.78903 17.9079 7.87174 17.9456 7.96279C17.9833 8.05384 18.0028 8.15143 18.0028 8.25C18.0028 8.34856 17.9833 8.44615 17.9456 8.5372C17.9079 8.62825 17.8525 8.71097 17.7828 8.78062L15.5328 11.0306C15.4631 11.1002 15.3804 11.1555 15.2894 11.1931C15.1984 11.2308 15.1008 11.2501 15.0023 11.2501C14.9038 11.25 14.8063 11.2306 14.7153 11.1929C14.6243 11.1551 14.5416 11.0998 14.472 11.0302C14.4024 10.9605 14.3472 10.8778 14.3095 10.7867C14.2719 10.6957 14.2525 10.5982 14.2526 10.4997C14.2526 10.4012 14.2721 10.3036 14.3098 10.2126C14.3475 10.1217 14.4028 10.039 14.4725 9.96937L16.7225 7.71937C16.8631 7.57882 17.0538 7.49988 17.2527 7.49988C17.4515 7.49988 17.6422 7.57882 17.7828 7.71937Z" fill="#414050"/>
</svg>
