<svg width="32" height="32" viewBox="0 0 32 32" fill="none" xmlns="http://www.w3.org/2000/svg">
<rect width="32" height="32" rx="16" fill="#F0E6FE"/>
<path d="M24.4064 19.7501H23.2064C23.8507 18.5116 24.1651 17.1281 24.1192 15.7328C24.0733 14.3375 23.6686 12.9776 22.9443 11.7842C22.2199 10.5908 21.2003 9.60414 19.9837 8.91942C18.7671 8.2347 17.3946 7.875 15.9986 7.875C14.6026 7.875 13.2301 8.2347 12.0135 8.91942C10.7969 9.60414 9.77727 10.5908 9.05291 11.7842C8.32855 12.9776 7.9239 14.3375 7.87799 15.7328C7.83208 17.1281 8.14645 18.5116 8.79078 19.7501H7.59391C7.34436 19.747 7.10348 19.8415 6.92255 20.0134C6.74161 20.1853 6.63491 20.421 6.62516 20.6704C6.62287 20.7949 6.64544 20.9187 6.69153 21.0344C6.73762 21.1502 6.80631 21.2556 6.89359 21.3444C6.98088 21.4333 7.085 21.5039 7.19988 21.5521C7.31475 21.6003 7.43808 21.6251 7.56266 21.6251H12.2502C12.4159 21.6251 12.5749 21.6909 12.6921 21.8081C12.8093 21.9253 12.8752 22.0843 12.8752 22.2501C12.8752 22.4158 12.8093 22.5748 12.6921 22.692C12.5749 22.8092 12.4159 22.8751 12.2502 22.8751H11.6377C11.4929 22.8748 11.3524 22.9235 11.2389 23.0133C11.1254 23.1031 11.0457 23.2287 11.0127 23.3696C10.9932 23.4608 10.9944 23.5552 11.0161 23.6459C11.0379 23.7366 11.0797 23.8212 11.1384 23.8937C11.1971 23.9661 11.2713 24.0245 11.3556 24.0645C11.4398 24.1046 11.5319 24.1253 11.6252 24.1251H21.6041C21.7653 24.1271 21.9213 24.068 22.0409 23.9598C22.1604 23.8516 22.2346 23.7021 22.2486 23.5415C22.2543 23.456 22.2423 23.3702 22.2135 23.2896C22.1846 23.2089 22.1395 23.135 22.0808 23.0725C22.0222 23.01 21.9514 22.9602 21.8727 22.9263C21.7941 22.8923 21.7093 22.8749 21.6236 22.8751H17.2502C17.0844 22.8751 16.9254 22.8092 16.8082 22.692C16.691 22.5748 16.6252 22.4158 16.6252 22.2501C16.6252 22.0843 16.691 21.9253 16.8082 21.8081C16.9254 21.6909 17.0844 21.6251 17.2502 21.6251H17.8588C18.0131 21.6244 18.1622 21.5684 18.279 21.4674C18.3957 21.3664 18.4725 21.227 18.4955 21.0743C18.506 20.9866 18.4977 20.8977 18.4714 20.8134C18.445 20.7291 18.401 20.6514 18.3424 20.5853C18.2838 20.5192 18.2119 20.4663 18.1313 20.4301C18.0508 20.3939 17.9635 20.3751 17.8752 20.3751H16.6252C15.4588 20.3751 14.2353 19.9235 13.2658 19.1368C12.2072 18.2774 11.6252 17.1626 11.6252 16.0001C11.625 15.7646 11.6436 15.5295 11.6806 15.297C11.7041 15.1347 11.7889 14.9876 11.9175 14.8859C12.0461 14.7842 12.2087 14.7356 12.372 14.7501C12.4564 14.7595 12.538 14.7861 12.6118 14.8281C12.6856 14.8702 12.7501 14.9268 12.8012 14.9946C12.8524 15.0623 12.8892 15.1398 12.9095 15.2223C12.9297 15.3048 12.9329 15.3905 12.9189 15.4743C12.89 15.6481 12.8754 15.8239 12.8752 16.0001C12.8752 17.7313 14.9267 19.1251 16.6252 19.1251H17.8314C18.8861 19.1251 19.7736 19.9884 19.7494 21.043C19.7478 21.117 19.7418 21.1909 19.7314 21.2641C19.7244 21.309 19.7272 21.3549 19.7397 21.3986C19.7522 21.4423 19.7741 21.4828 19.8039 21.5171C19.8336 21.5515 19.8705 21.579 19.912 21.5976C19.9534 21.6163 19.9985 21.6256 20.0439 21.6251H24.4377C24.5622 21.6251 24.6856 21.6003 24.8004 21.5521C24.9153 21.5039 25.0194 21.4333 25.1067 21.3444C25.194 21.2556 25.2627 21.1502 25.3088 21.0344C25.3549 20.9187 25.3774 20.7949 25.3752 20.6704C25.3654 20.421 25.2587 20.1853 25.0778 20.0134C24.8968 19.8415 24.656 19.747 24.4064 19.7501ZM15.9923 13.3095C15.9696 13.483 15.8987 13.6466 15.7877 13.782C15.6767 13.9173 15.53 14.0188 15.3643 14.0751C15.1986 14.1314 15.0205 14.1402 14.85 14.1004C14.6796 14.0607 14.5237 13.9741 14.3999 13.8503C14.2762 13.7266 14.1895 13.5707 14.1498 13.4002C14.1101 13.2298 14.1188 13.0516 14.1751 12.8859C14.2314 12.7202 14.333 12.5735 14.4683 12.4626C14.6036 12.3516 14.7673 12.2807 14.9408 12.2579C15.0833 12.2392 15.2282 12.2535 15.3643 12.2997C15.5004 12.3459 15.6241 12.4229 15.7257 12.5245C15.8274 12.6261 15.9043 12.7498 15.9505 12.8859C15.9967 13.022 16.0111 13.1669 15.9923 13.3095ZM19.7423 17.0595C19.7196 17.233 19.6487 17.3966 19.5377 17.532C19.4267 17.6673 19.28 17.7688 19.1143 17.8251C18.9486 17.8814 18.7705 17.8902 18.6 17.8504C18.4296 17.8107 18.2737 17.7241 18.1499 17.6003C18.0262 17.4766 17.9395 17.3207 17.8998 17.1502C17.8601 16.9798 17.8688 16.8016 17.9251 16.6359C17.9814 16.4702 18.083 16.3235 18.2183 16.2126C18.3536 16.1016 18.5173 16.0307 18.6908 16.0079C18.8333 15.9892 18.9782 16.0035 19.1143 16.0497C19.2504 16.0959 19.3741 16.1729 19.4757 16.2745C19.5774 16.3761 19.6543 16.4998 19.7005 16.6359C19.7467 16.772 19.7611 16.9169 19.7423 17.0595Z" fill="#8460B3"/>
</svg>
