<svg width="32" height="32" viewBox="0 0 32 32" fill="none" xmlns="http://www.w3.org/2000/svg">
<rect width="32" height="32" rx="16" fill="#F7E9E1"/>
<path d="M16 7.875C14.393 7.875 12.8221 8.35152 11.486 9.24431C10.1498 10.1371 9.10844 11.406 8.49348 12.8907C7.87852 14.3753 7.71762 16.009 8.03112 17.5851C8.34463 19.1612 9.11846 20.6089 10.2548 21.7452C11.3911 22.8815 12.8388 23.6554 14.4149 23.9689C15.991 24.2824 17.6247 24.1215 19.1093 23.5065C20.594 22.8916 21.8629 21.8502 22.7557 20.514C23.6485 19.1779 24.125 17.607 24.125 16C24.1223 13.8459 23.2654 11.7809 21.7423 10.2577C20.2191 8.73457 18.1541 7.87769 16 7.875ZM13.1875 13.5C13.3729 13.5 13.5542 13.555 13.7084 13.658C13.8625 13.761 13.9827 13.9074 14.0536 14.0787C14.1246 14.25 14.1432 14.4385 14.107 14.6204C14.0708 14.8023 13.9815 14.9693 13.8504 15.1004C13.7193 15.2315 13.5523 15.3208 13.3704 15.357C13.1885 15.3932 13 15.3746 12.8287 15.3036C12.6574 15.2327 12.511 15.1125 12.408 14.9583C12.305 14.8042 12.25 14.6229 12.25 14.4375C12.25 14.1889 12.3488 13.9504 12.5246 13.7746C12.7004 13.5988 12.9389 13.5 13.1875 13.5ZM19.125 19.125H12.875C12.7092 19.125 12.5503 19.0592 12.4331 18.9419C12.3159 18.8247 12.25 18.6658 12.25 18.5C12.25 18.3342 12.3159 18.1753 12.4331 18.0581C12.5503 17.9408 12.7092 17.875 12.875 17.875H19.125C19.2908 17.875 19.4497 17.9408 19.5669 18.0581C19.6842 18.1753 19.75 18.3342 19.75 18.5C19.75 18.6658 19.6842 18.8247 19.5669 18.9419C19.4497 19.0592 19.2908 19.125 19.125 19.125ZM18.8125 15.375C18.6271 15.375 18.4458 15.32 18.2917 15.217C18.1375 15.114 18.0173 14.9676 17.9464 14.7963C17.8754 14.625 17.8568 14.4365 17.893 14.2546C17.9292 14.0727 18.0185 13.9057 18.1496 13.7746C18.2807 13.6435 18.4477 13.5542 18.6296 13.518C18.8115 13.4818 19 13.5004 19.1713 13.5714C19.3426 13.6423 19.489 13.7625 19.592 13.9167C19.695 14.0708 19.75 14.2521 19.75 14.4375C19.75 14.6861 19.6512 14.9246 19.4754 15.1004C19.2996 15.2762 19.0611 15.375 18.8125 15.375Z" fill="#E6834A"/>
</svg>
