<svg width="32" height="32" viewBox="0 0 32 32" fill="none" xmlns="http://www.w3.org/2000/svg">
<rect width="32" height="32" rx="16" fill="#FFEFF1"/>
<path d="M16 7.875C14.393 7.875 12.8221 8.35152 11.486 9.24431C10.1498 10.1371 9.10844 11.406 8.49348 12.8907C7.87852 14.3753 7.71762 16.009 8.03112 17.5851C8.34463 19.1612 9.11846 20.6089 10.2548 21.7452C11.3911 22.8815 12.8388 23.6554 14.4149 23.9689C15.991 24.2824 17.6247 24.1215 19.1093 23.5065C20.594 22.8916 21.8629 21.8502 22.7557 20.514C23.6485 19.1779 24.125 17.607 24.125 16C24.1227 13.8458 23.266 11.7805 21.7427 10.2573C20.2195 8.73403 18.1542 7.87727 16 7.875ZM12.25 16.9375C12.25 16.7521 12.305 16.5708 12.408 16.4167C12.511 16.2625 12.6574 16.1423 12.8287 16.0714C13 16.0004 13.1885 15.9818 13.3704 16.018C13.5523 16.0542 13.7193 16.1435 13.8504 16.2746C13.9815 16.4057 14.0708 16.5727 14.107 16.7546C14.1432 16.9365 14.1246 17.125 14.0536 17.2963C13.9827 17.4676 13.8625 17.614 13.7084 17.717C13.5542 17.82 13.3729 17.875 13.1875 17.875C12.9389 17.875 12.7004 17.7762 12.5246 17.6004C12.3488 17.4246 12.25 17.1861 12.25 16.9375ZM18.3953 20.7211C18.3035 20.8591 18.1607 20.9549 17.9982 20.9876C17.8357 21.0203 17.6669 20.9871 17.5289 20.8953C17.0211 20.5578 16.625 20.375 16 20.375C15.375 20.375 14.9789 20.5578 14.4711 20.8953C14.3331 20.9837 14.1659 21.0143 14.0055 20.9806C13.8452 20.9469 13.7045 20.8515 13.6137 20.7151C13.5229 20.5787 13.4894 20.412 13.5203 20.2511C13.5512 20.0902 13.6441 19.9478 13.7789 19.8547C14.4375 19.4164 15.0672 19.125 16 19.125C16.9328 19.125 17.5625 19.4164 18.2211 19.8547C18.3591 19.9465 18.4549 20.0893 18.4876 20.2518C18.5203 20.4143 18.4871 20.5831 18.3953 20.7211ZM18.8125 17.875C18.6271 17.875 18.4458 17.82 18.2917 17.717C18.1375 17.614 18.0173 17.4676 17.9464 17.2963C17.8754 17.125 17.8568 16.9365 17.893 16.7546C17.9292 16.5727 18.0185 16.4057 18.1496 16.2746C18.2807 16.1435 18.4477 16.0542 18.6296 16.018C18.8115 15.9818 19 16.0004 19.1713 16.0714C19.3426 16.1423 19.489 16.2625 19.592 16.4167C19.695 16.5708 19.75 16.7521 19.75 16.9375C19.75 17.1861 19.6512 17.4246 19.4754 17.6004C19.2996 17.7762 19.0611 17.875 18.8125 17.875ZM20.0969 13.3953L16.3469 15.8953C16.2442 15.9638 16.1235 16.0004 16 16.0004C15.8765 16.0004 15.7558 15.9638 15.6531 15.8953L11.9031 13.3953C11.8348 13.3498 11.7761 13.2912 11.7304 13.223C11.6847 13.1547 11.6529 13.0782 11.6368 12.9976C11.6207 12.9171 11.6206 12.8342 11.6366 12.7536C11.6525 12.6731 11.6841 12.5965 11.7297 12.5281C11.8217 12.3901 11.9647 12.2943 12.1274 12.2618C12.2079 12.2457 12.2908 12.2456 12.3714 12.2616C12.4519 12.2775 12.5286 12.3091 12.5969 12.3547L16 14.6242L19.4031 12.3586C19.4715 12.313 19.5481 12.2814 19.6286 12.2655C19.7092 12.2495 19.7921 12.2496 19.8726 12.2657C19.9532 12.2818 20.0297 12.3136 20.098 12.3593C20.1662 12.405 20.2248 12.4637 20.2703 12.532C20.3159 12.6004 20.3475 12.677 20.3635 12.7576C20.3794 12.8381 20.3793 12.921 20.3632 13.0015C20.3471 13.0821 20.3153 13.1586 20.2696 13.2269C20.2239 13.2951 20.1652 13.3537 20.0969 13.3992V13.3953Z" fill="#B54957"/>
</svg>
