<svg width="24" height="24" viewBox="0 0 24 24" fill="none" xmlns="http://www.w3.org/2000/svg">
<rect x="1" y="1" width="22" height="22" rx="11" fill="#F0E6FE"/>
<rect x="1" y="1" width="22" height="22" rx="11" stroke="white" stroke-width="2"/>
<path d="M14.8125 12.625C14.318 12.625 13.8347 12.7716 13.4236 13.0463C13.0125 13.321 12.692 13.7115 12.5028 14.1683C12.3136 14.6251 12.2641 15.1278 12.3605 15.6127C12.457 16.0977 12.6951 16.5431 13.0447 16.8928C13.3944 17.2424 13.8398 17.4805 14.3248 17.577C14.8097 17.6734 15.3124 17.6239 15.7692 17.4347C16.226 17.2455 16.6165 16.925 16.8912 16.5139C17.1659 16.1028 17.3125 15.6195 17.3125 15.125C17.3118 14.4622 17.0482 13.8267 16.5795 13.358C16.1108 12.8893 15.4753 12.6257 14.8125 12.625ZM16.1587 15.3173H14.8125C14.7615 15.3173 14.7126 15.297 14.6765 15.261C14.6405 15.2249 14.6202 15.176 14.6202 15.125V13.7788C14.6202 13.7278 14.6405 13.6789 14.6765 13.6429C14.7126 13.6068 14.7615 13.5865 14.8125 13.5865C14.8635 13.5865 14.9124 13.6068 14.9485 13.6429C14.9845 13.6789 15.0048 13.7278 15.0048 13.7788V14.9327H16.1587C16.2097 14.9327 16.2586 14.953 16.2946 14.989C16.3307 15.0251 16.351 15.074 16.351 15.125C16.351 15.176 16.3307 15.2249 16.2946 15.261C16.2586 15.297 16.2097 15.3173 16.1587 15.3173Z" fill="#8460B3"/>
<path fill-rule="evenodd" clip-rule="evenodd" d="M14.1875 6.375H7.9375V7.625H14.1875V6.375ZM7.9375 8.25H14.1875C14.875 8.25 15.4375 8.8125 15.4375 9.5V12.0623C15.2358 12.0215 15.0271 12 14.8133 12C13.0874 12 11.6883 13.3991 11.6883 15.125C11.6883 16.1472 12.1792 17.0549 12.938 17.625H7.9375C7.25 17.625 6.6875 17.0625 6.6875 16.375V9.5C6.6875 8.8125 7.25 8.25 7.9375 8.25Z" fill="#8460B3"/>
</svg>
