<svg width="24" height="24" viewBox="0 0 24 24" fill="none" xmlns="http://www.w3.org/2000/svg">
<rect x="1" y="1" width="22" height="22" rx="11" fill="#DEF5F0"/>
<rect x="1" y="1" width="22" height="22" rx="11" stroke="white" stroke-width="2"/>
<path d="M17.8125 16.4062C17.8125 16.5803 17.7434 16.7472 17.6203 16.8703C17.4972 16.9934 17.3303 17.0625 17.1562 17.0625H6.65625C6.4822 17.0625 6.31528 16.9934 6.19221 16.8703C6.06914 16.7472 6 16.5803 6 16.4062V7.65625C6 7.4822 6.06914 7.31528 6.19221 7.19221C6.31528 7.06914 6.4822 7 6.65625 7C6.8303 7 6.99722 7.06914 7.12029 7.19221C7.24336 7.31528 7.3125 7.4822 7.3125 7.65625V12.3348L9.72422 10.2266C9.83744 10.1275 9.98126 10.0704 10.1316 10.0647C10.2819 10.059 10.4296 10.1051 10.55 10.1954L13.6245 12.501L16.7242 9.78906C16.7877 9.72568 16.8635 9.676 16.947 9.64307C17.0305 9.61015 17.1198 9.59469 17.2095 9.59765C17.2991 9.6006 17.3872 9.62192 17.4683 9.66027C17.5494 9.69862 17.6218 9.75319 17.681 9.82062C17.7402 9.88805 17.7849 9.96689 17.8124 10.0523C17.84 10.1377 17.8497 10.2278 17.841 10.3171C17.8323 10.4064 17.8054 10.493 17.7619 10.5715C17.7185 10.6499 17.6594 10.7187 17.5883 10.7734L14.0883 13.8359C13.9751 13.935 13.8312 13.9921 13.6809 13.9978C13.5306 14.0035 13.3829 13.9574 13.2625 13.8671L10.188 11.5631L7.3125 14.0793V15.75H17.1562C17.3303 15.75 17.4972 15.8191 17.6203 15.9422C17.7434 16.0653 17.8125 16.2322 17.8125 16.4062Z" fill="#414050"/>
</svg>
