<svg width="24" height="24" viewBox="0 0 24 24" fill="none" xmlns="http://www.w3.org/2000/svg">
<rect x="1" y="1" width="22" height="22" rx="11" fill="#F0E6FE"/>
<rect x="1" y="1" width="22" height="22" rx="11" stroke="white" stroke-width="2"/>
<path fill-rule="evenodd" clip-rule="evenodd" d="M15.2143 6.21436H8.78571V7.50007H15.2143V6.21436ZM8.78571 8.14293H15.2143C15.9214 8.14293 16.5 8.7215 16.5 9.42864V16.5001C16.5 17.2072 15.9214 17.7858 15.2143 17.7858H8.78571C8.07857 17.7858 7.5 17.2072 7.5 16.5001V9.42864C7.5 8.7215 8.07857 8.14293 8.78571 8.14293ZM12 12.6429C13.0651 12.6429 13.9286 12.0673 13.9286 11.3572C13.9286 10.6471 13.0651 10.0715 12 10.0715C10.9349 10.0715 10.0714 10.6471 10.0714 11.3572C10.0714 12.0673 10.9349 12.6429 12 12.6429Z" fill="#8460B3"/>
</svg>
