<svg width="24" height="24" viewBox="0 0 24 24" fill="none" xmlns="http://www.w3.org/2000/svg">
<rect x="1" y="1" width="22" height="22" rx="11" fill="#E7F4FB"/>
<rect x="1" y="1" width="22" height="22" rx="11" stroke="white" stroke-width="2"/>
<g clip-path="url(#clip0_250_13026)">
<path d="M16.8158 15.5V16.1562C16.8158 16.6788 16.6082 17.18 16.2387 17.5495C15.8692 17.919 15.368 18.1266 14.8454 18.1266C14.3229 18.1266 13.8217 17.919 13.4522 17.5495C13.0826 17.18 12.875 16.6788 12.875 16.1562V15.5C12.875 15.384 12.9211 15.2727 13.0032 15.1906C13.0852 15.1086 13.1965 15.0625 13.3125 15.0625H16.375C16.4328 15.0621 16.49 15.0731 16.5435 15.0949C16.5969 15.1166 16.6456 15.1488 16.6865 15.1895C16.7275 15.2301 16.76 15.2785 16.7822 15.3318C16.8044 15.3851 16.8158 15.4423 16.8158 15.5ZM10.6875 13.75H7.62505C7.50902 13.75 7.39774 13.7961 7.31569 13.8781C7.23364 13.9602 7.18755 14.0715 7.18755 14.1875V14.8437C7.18755 15.3659 7.39497 15.8667 7.76418 16.2359C8.13339 16.6051 8.63415 16.8125 9.1563 16.8125C9.67844 16.8125 10.1792 16.6051 10.5484 16.2359C10.9176 15.8667 11.125 15.3659 11.125 14.8437V14.1875C11.125 14.0715 11.079 13.9602 10.9969 13.8781C10.9149 13.7961 10.8036 13.75 10.6875 13.75ZM9.1563 5.875C8.51973 5.875 7.90231 6.43883 7.41723 7.46094C6.65544 9.06766 6.40223 11.4531 7.43309 12.7109C7.4742 12.7611 7.52594 12.8015 7.58459 12.8292C7.64323 12.8569 7.7073 12.8713 7.77216 12.8712H10.5366C10.6015 12.8713 10.6655 12.8569 10.7242 12.8292C10.7828 12.8015 10.8346 12.7611 10.8757 12.7109C11.9065 11.4531 11.6533 9.06602 10.8915 7.46094C10.4059 6.43883 9.78903 5.875 9.1563 5.875ZM13.4657 14.1875H16.2301C16.295 14.1876 16.3591 14.1733 16.4177 14.1456C16.4763 14.1178 16.5281 14.0774 16.5692 14.0273C17.6 12.7695 17.3468 10.3823 16.585 8.77727C16.0978 7.75133 15.4804 7.1875 14.8438 7.1875C14.2072 7.1875 13.592 7.75133 13.1064 8.77344C12.3446 10.3802 12.0914 12.7656 13.1222 14.0234C13.1632 14.0746 13.2151 14.1159 13.2742 14.1443C13.3333 14.1727 13.3979 14.1875 13.4635 14.1875H13.4657Z" fill="#3B8AAB"/>
</g>
<defs>
<clipPath id="clip0_250_13026">
<rect width="14" height="14" fill="white" transform="translate(5 5)"/>
</clipPath>
</defs>
</svg>
