<svg width="24" height="24" viewBox="0 0 24 24" fill="none" xmlns="http://www.w3.org/2000/svg">
<rect x="1" y="1" width="22" height="22" rx="11" fill="#E3E2E5"/>
<rect x="1" y="1" width="22" height="22" rx="11" stroke="white" stroke-width="2"/>
<path d="M17.0769 11.5769C16.5159 11.5769 15.9778 11.3541 15.5811 10.9573C15.1844 10.5606 14.9615 10.0226 14.9615 9.46154C14.9615 9.34933 14.917 9.24172 14.8376 9.16238C14.7583 9.08304 14.6507 9.03846 14.5385 9.03846C13.9774 9.03846 13.4394 8.81559 13.0427 8.41888C12.6459 8.02217 12.4231 7.48411 12.4231 6.92308C12.4231 6.81087 12.3785 6.70326 12.2992 6.62392C12.2198 6.54457 12.1122 6.5 12 6.5C10.9122 6.5 9.84884 6.82257 8.94437 7.42692C8.0399 8.03126 7.33495 8.89025 6.91866 9.89524C6.50238 10.9002 6.39346 12.0061 6.60568 13.073C6.8179 14.1399 7.34173 15.1199 8.11091 15.8891C8.8801 16.6583 9.86011 17.1821 10.927 17.3943C11.9939 17.6065 13.0998 17.4976 14.1048 17.0813C15.1098 16.6651 15.9687 15.9601 16.5731 15.0556C17.1774 14.1512 17.5 13.0878 17.5 12C17.5 11.8878 17.4554 11.7802 17.3761 11.7008C17.2967 11.6215 17.1891 11.5769 17.0769 11.5769ZM9.22409 10.4933C9.31293 10.4048 9.42601 10.3446 9.54905 10.3203C9.6721 10.2959 9.79958 10.3086 9.91542 10.3567C10.0312 10.4048 10.1302 10.4862 10.1999 10.5905C10.2695 10.6948 10.3067 10.8174 10.3067 10.9428C10.3067 11.0683 10.2695 11.1909 10.1999 11.2952C10.1302 11.3995 10.0312 11.4808 9.91542 11.5289C9.79958 11.577 9.6721 11.5897 9.54905 11.5654C9.42601 11.5411 9.31293 11.4809 9.22409 11.3924C9.16493 11.3334 9.11798 11.2633 9.08595 11.1862C9.05392 11.1091 9.03743 11.0264 9.03743 10.9428C9.03743 10.8593 9.05392 10.7766 9.08595 10.6995C9.11798 10.6223 9.16493 10.5523 9.22409 10.4933ZM10.5462 14.3539C10.4574 14.4424 10.3443 14.5026 10.2212 14.527C10.0982 14.5513 9.97071 14.5386 9.85488 14.4905C9.73904 14.4424 9.64006 14.361 9.57043 14.2567C9.50079 14.1524 9.46363 14.0298 9.46363 13.9044C9.46363 13.779 9.50079 13.6563 9.57043 13.552C9.64006 13.4477 9.73904 13.3664 9.85488 13.3183C9.97071 13.2702 10.0982 13.2575 10.2212 13.2818C10.3443 13.3061 10.4574 13.3663 10.5462 13.4549C10.6051 13.5139 10.6519 13.5839 10.6837 13.661C10.7156 13.7381 10.7319 13.8207 10.7318 13.9041C10.7317 13.9875 10.7152 14.07 10.6831 14.147C10.6511 14.224 10.6042 14.294 10.5451 14.3528L10.5462 14.3539ZM11.7625 12.2385C11.674 12.1497 11.6138 12.0366 11.5895 11.9135C11.5652 11.7905 11.5779 11.663 11.626 11.5472C11.6741 11.4313 11.7554 11.3324 11.8597 11.2627C11.964 11.1931 12.0866 11.1559 12.2121 11.1559C12.3375 11.1559 12.4601 11.1931 12.5644 11.2627C12.6687 11.3324 12.7501 11.4313 12.7982 11.5472C12.8463 11.663 12.859 11.7905 12.8347 11.9135C12.8103 12.0366 12.7501 12.1497 12.6616 12.2385C12.6026 12.2976 12.5324 12.3445 12.4553 12.3764C12.3781 12.4083 12.2954 12.4247 12.2118 12.4246C12.1283 12.4245 12.0456 12.408 11.9685 12.3758C11.8914 12.3437 11.8214 12.2967 11.7625 12.2375V12.2385ZM13.9308 14.777C13.842 14.8655 13.7289 14.9257 13.6059 14.95C13.4828 14.9743 13.3553 14.9616 13.2395 14.9135C13.1237 14.8654 13.0247 14.7841 12.955 14.6798C12.8854 14.5755 12.8482 14.4529 12.8482 14.3275C12.8482 14.202 12.8854 14.0794 12.955 13.9751C13.0247 13.8708 13.1237 13.7895 13.2395 13.7414C13.3553 13.6933 13.4828 13.6806 13.6059 13.7049C13.7289 13.7292 13.842 13.7894 13.9308 13.8779C13.9898 13.9369 14.0365 14.007 14.0683 14.0841C14.1002 14.1611 14.1165 14.2437 14.1164 14.3271C14.1163 14.4105 14.0998 14.4931 14.0678 14.5701C14.0357 14.6471 13.9888 14.717 13.9298 14.7759L13.9308 14.777Z" fill="#414050"/>
</svg>
