<svg width="24" height="24" viewBox="0 0 24 24" fill="none" xmlns="http://www.w3.org/2000/svg">
<rect x="1" y="1" width="22" height="22" rx="11" fill="#E3E2E5"/>
<rect x="1" y="1" width="22" height="22" rx="11" stroke="white" stroke-width="2"/>
<g clip-path="url(#clip0_230_1711)">
<path d="M10.4688 6.96875C10.4688 6.6659 10.5586 6.36985 10.7269 6.11803C10.8951 5.86622 11.1343 5.66996 11.4141 5.55406C11.6939 5.43816 12.0017 5.40784 12.2988 5.46692C12.5958 5.52601 12.8687 5.67184 13.0828 5.88599C13.297 6.10014 13.4428 6.37299 13.5019 6.67002C13.561 6.96705 13.5306 7.27494 13.4147 7.55473C13.2988 7.83453 13.1026 8.07368 12.8508 8.24194C12.5989 8.41019 12.3029 8.5 12 8.5C11.5939 8.5 11.2045 8.33867 10.9173 8.05151C10.6301 7.76434 10.4688 7.37486 10.4688 6.96875ZM17.4469 10.0624C17.4071 9.8664 17.3 9.69045 17.1443 9.56495C16.9885 9.43945 16.7938 9.37226 16.5938 9.375H7.4063C7.20681 9.37499 7.0133 9.44315 6.85786 9.56817C6.70241 9.6932 6.59435 9.86759 6.55159 10.0624C6.50883 10.2573 6.53393 10.4609 6.62274 10.6395C6.71155 10.8182 6.85873 10.9611 7.03989 11.0446H7.04317L9.99028 12.3423L8.79153 16.8978C8.70005 17.1071 8.69402 17.3439 8.77475 17.5575C8.85547 17.7712 9.01655 17.9448 9.22356 18.0413C9.33926 18.0963 9.46571 18.1248 9.5938 18.125C9.75874 18.1252 9.9204 18.0789 10.0601 17.9912C10.1998 17.9035 10.3119 17.7782 10.3835 17.6295L12 14.8438L13.6177 17.6328C13.7183 17.8375 13.8949 17.9948 14.1098 18.0712C14.3246 18.1476 14.5609 18.1371 14.7681 18.042C14.9754 17.9468 15.1373 17.7744 15.2193 17.5616C15.3014 17.3489 15.2971 17.1124 15.2075 16.9027L14.0087 12.3473L16.9618 11.0479C17.1451 10.9662 17.294 10.8229 17.3826 10.6429C17.4712 10.4629 17.494 10.2575 17.4469 10.0624Z" fill="#414050"/>
</g>
<defs>
<clipPath id="clip0_230_1711">
<rect width="14" height="14" fill="white" transform="translate(5 5)"/>
</clipPath>
</defs>
</svg>
